<?xml version="1.0" encoding="UTF-8" standalone="no"?>
<!-- Created with Inkscape (http://www.inkscape.org/) -->
<!DOCTYPE svg PUBLIC "-//W3C//DTD SVG 1.1//EN" "http://www.w3.org/Graphics/SVG/1.1/DTD/svg11.dtd">
<svg xmlns:rdf="http://www.w3.org/1999/02/22-rdf-syntax-ns#" xmlns="http://www.w3.org/2000/svg" xmlns:cc="http://creativecommons.org/ns#" xmlns:dc="http://purl.org/dc/elements/1.1/" id="svg3046" xml:space="preserve" height="30" width="135" version="1.1" viewBox="0 0 135 30">
  <metadata>
    <rdf:RDF>
      <cc:Work rdf:about="">
        <dc:format>image/svg+xml</dc:format>
        <dc:type rdf:resource="http://purl.org/dc/dcmitype/StillImage"/>
        <dc:title/>
      </cc:Work>
    </rdf:RDF>
  </metadata>
  <g fill="#b1d579">
    <g id="name" transform="matrix(.83 0 0 1 3.9268 0)">
          <path d="m26.04 25.875v-20.64l5.451-0.473v21.113h-5.451zm17.215 0h-6.141l-5.451-8.066 5.589-6.704h5.555l-5.555 6.481 6.003 8.289z"/>
          <path d="m58.951 21.592c0 1.141 0.379 1.557 1.242 1.808l-1.138 2.865c-2.174-0.14-3.588-0.668-4.416-2.142-1.311 1.641-3.347 2.225-5.52 2.225-3.657 0-5.969-1.919-5.969-4.617 0-3.227 3.036-4.979 8.59-4.979h1.863v-0.64c0-1.752-0.862-2.281-3.105-2.281-1.173 0-2.967 0.278-4.795 0.779l-1.242-2.893c2.312-0.695 4.83-1.085 6.9-1.085 5.313 0 7.59 1.808 7.59 5.23v5.73zm-5.347 0.194v-2.614h-1.346c-2.484 0-3.691 0.695-3.691 2.169 0 1.169 0.793 1.864 2.139 1.864 1.276 0 2.242-0.529 2.898-1.419z"/>
          <path d="m68.057 21.73c0 0.834 0.345 1.141 0.932 1.141 0.276 0 0.655-0.057 0.897-0.139l1.069 3.115c-0.931 0.306-2.242 0.5-3.519 0.5-3.036 0-4.83-1.446-4.83-4.172v-16.94l5.451-0.473v16.968z"/>
          <path d="m77.785 21.73c0 0.834 0.345 1.141 0.932 1.141 0.276 0 0.655-0.057 0.897-0.139l1.069 3.115c-0.931 0.306-2.242 0.5-3.519 0.5-3.036 0-4.83-1.446-4.83-4.172v-16.94l5.451-0.473v16.968z"/>
          <path d="m88.169 5.819c0 1.418-1.346 2.503-3.243 2.503s-3.208-1.085-3.208-2.503c0-1.419 1.311-2.504 3.208-2.504s3.243 1.085 3.243 2.504zm-5.935 20.056v-14.771h5.451v14.771h-5.451z"/>
          <path d="m102.93 25.18c-1.38 0.779-3.312 1.168-4.968 1.168-4.036-0.027-6.003-1.863-6.003-5.341v-6.843h-2.588v-3.06h2.588v-3.199l5.451-0.5v3.7h4.209l-0.587 3.06h-3.622v6.787c0 1.419 0.586 1.92 1.725 1.92 0.621 0 1.242-0.139 1.967-0.501l1.828 2.809z"/>
          <path d="m120.04 15.082v10.793h-5.45v-10.042c0-1.558-0.691-1.975-1.726-1.975-1.208 0-2.208 0.695-3.175 1.892v10.125h-5.45v-20.64l5.45-0.445v7.9c1.484-1.363 3.141-2.059 5.279-2.059 3.174 0 5.072 1.641 5.072 4.451z"/>
          <path d="m139.5 19.783h-11.35c0.379 2.643 1.932 3.365 4.174 3.365 1.484 0 2.795-0.416 4.382-1.307l2.243 2.447c-1.829 1.168-4.175 2.059-7.143 2.059-6.105 0-9.211-3.171-9.211-7.789 0-4.422 3.002-7.927 8.557-7.927 5.243 0 8.452 2.782 8.452 7.566 0 0.473-0.034 1.141-0.103 1.586zm-5.244-2.838c-0.034-2.002-0.794-3.393-2.968-3.393-1.793 0-2.897 0.946-3.139 3.588h6.106v-0.195z"/>
          <path d="m156.78 21.592c0 1.141 0.379 1.557 1.242 1.808l-1.139 2.865c-2.174-0.14-3.588-0.668-4.416-2.142-1.311 1.641-3.347 2.225-5.52 2.225-3.658 0-5.969-1.919-5.969-4.617 0-3.227 3.035-4.979 8.59-4.979h1.863v-0.64c0-1.752-0.862-2.281-3.105-2.281-1.172 0-2.967 0.278-4.795 0.779l-1.242-2.893c2.312-0.695 4.83-1.085 6.9-1.085 5.312 0 7.59 1.808 7.59 5.23v5.73zm-5.347 0.194v-2.614h-1.346c-2.484 0-3.691 0.695-3.691 2.169 0 1.169 0.793 1.864 2.139 1.864 1.276 0 2.241-0.529 2.898-1.419z"/>
    </g>
    <g id="codeBox">
      <polygon points="13.383 21.393 0 21.393 0 25.875 13.383 25.875 15.625 25.875 17.867 25.875 17.867 10.25 13.383 10.25"/>
      <polygon points="4.484 4 2.174 4 0 4 0 19.625 4.484 19.625 4.484 8.483 17.799 8.483 17.799 4"/>
    </g>
  </g>
</svg>
