<?xml version="1.0" encoding="utf-8"?>
<!-- Generator: Adobe Illustrator 16.0.0, SVG Export Plug-In . SVG Version: 6.00 Build 0)  -->
<!DOCTYPE svg PUBLIC "-//W3C//DTD SVG 1.1//EN" "http://www.w3.org/Graphics/SVG/1.1/DTD/svg11.dtd">
<svg version="1.1" id="Layer_1" xmlns="http://www.w3.org/2000/svg" xmlns:xlink="http://www.w3.org/1999/xlink" x="0px" y="0px"
	 width="163px" height="30px" viewBox="0 0 163 30" enable-background="new 0 0 163 30" xml:space="preserve">
<g id="Layer_2" display="none">
	<rect x="-24" y="-66.5" display="inline" fill="#404C2C" width="256" height="163"/>
</g>
<g>
	<g>
		<g enable-background="new    ">
			<path fill="#B1D579" d="M26.04,25.875V5.235l5.451-0.473v21.113H26.04z M43.255,25.875h-6.141l-5.451-8.066l5.589-6.704h5.555
				l-5.555,6.481L43.255,25.875z"/>
			<path fill="#B1D579" d="M58.951,21.592c0,1.141,0.379,1.557,1.242,1.809l-1.138,2.865c-2.174-0.141-3.588-0.668-4.416-2.143
				c-1.311,1.641-3.347,2.225-5.52,2.225c-3.657,0-5.969-1.918-5.969-4.617c0-3.227,3.036-4.979,8.59-4.979h1.863v-0.641
				c0-1.751-0.862-2.28-3.105-2.28c-1.173,0-2.967,0.278-4.795,0.779l-1.242-2.893c2.312-0.695,4.83-1.085,6.9-1.085
				c5.313,0,7.59,1.808,7.59,5.229V21.592z M53.604,21.786v-2.614h-1.346c-2.484,0-3.691,0.695-3.691,2.169
				c0,1.169,0.793,1.864,2.139,1.864C51.982,23.205,52.948,22.676,53.604,21.786z"/>
			<path fill="#B1D579" d="M68.057,21.73c0,0.834,0.345,1.141,0.932,1.141c0.276,0,0.655-0.057,0.897-0.139l1.069,3.115
				c-0.931,0.305-2.242,0.5-3.519,0.5c-3.036,0-4.83-1.447-4.83-4.173V5.235l5.451-0.473V21.73z"/>
			<path fill="#B1D579" d="M77.785,21.73c0,0.834,0.345,1.141,0.932,1.141c0.276,0,0.655-0.057,0.897-0.139l1.069,3.115
				c-0.931,0.305-2.242,0.5-3.519,0.5c-3.036,0-4.83-1.447-4.83-4.173V5.235l5.451-0.473V21.73z"/>
			<path fill="#B1D579" d="M88.169,5.819c0,1.418-1.346,2.503-3.243,2.503c-1.896,0-3.208-1.085-3.208-2.503
				c0-1.419,1.312-2.504,3.208-2.504C86.823,3.315,88.169,4.4,88.169,5.819z M82.234,25.875V11.104h5.451v14.771H82.234z"/>
			<path fill="#B1D579" d="M102.934,25.18c-1.379,0.779-3.312,1.168-4.968,1.168c-4.036-0.027-6.003-1.863-6.003-5.341v-6.843
				h-2.588v-3.06h2.588V7.905l5.451-0.5v3.7h4.209l-0.587,3.06h-3.622v6.787c0,1.419,0.586,1.92,1.725,1.92
				c0.621,0,1.242-0.14,1.967-0.501L102.934,25.18z"/>
			<path fill="#B1D579" d="M120.044,15.082v10.793h-5.45V15.833c0-1.558-0.691-1.975-1.726-1.975c-1.208,0-2.208,0.695-3.175,1.892
				v10.125h-5.45V5.235l5.45-0.445v7.9c1.483-1.363,3.141-2.059,5.279-2.059C118.146,10.631,120.044,12.272,120.044,15.082z"/>
			<path fill="#B1D579" d="M139.501,19.783H128.15c0.379,2.643,1.932,3.365,4.174,3.365c1.484,0,2.795-0.416,4.382-1.308
				l2.243,2.447c-1.829,1.168-4.176,2.06-7.143,2.06c-6.105,0-9.211-3.172-9.211-7.789c0-4.422,3.002-7.928,8.557-7.928
				c5.242,0,8.451,2.782,8.451,7.566C139.604,18.67,139.57,19.338,139.501,19.783z M134.257,16.945
				c-0.034-2.002-0.794-3.394-2.968-3.394c-1.793,0-2.896,0.946-3.139,3.589h6.105L134.257,16.945L134.257,16.945z"/>
			<path fill="#B1D579" d="M156.783,21.592c0,1.141,0.379,1.557,1.242,1.809l-1.139,2.865c-2.175-0.141-3.589-0.668-4.416-2.143
				c-1.312,1.641-3.348,2.225-5.521,2.225c-3.658,0-5.97-1.918-5.97-4.617c0-3.227,3.035-4.979,8.59-4.979h1.863v-0.641
				c0-1.751-0.861-2.28-3.104-2.28c-1.172,0-2.968,0.278-4.795,0.779l-1.242-2.893c2.312-0.695,4.83-1.085,6.899-1.085
				c5.312,0,7.591,1.808,7.591,5.229L156.783,21.592L156.783,21.592z M151.436,21.786v-2.614h-1.346
				c-2.484,0-3.691,0.695-3.691,2.169c0,1.169,0.793,1.864,2.14,1.864C149.814,23.205,150.779,22.676,151.436,21.786z"/>
		</g>
	</g>
</g>
<path id="path3101" fill="#B1D579" d="M8.155,18.736c-0.086-0.21-0.048-0.579-0.048-0.579L8.01,10.059H6.861l0.098,8.398
	c0,0-0.034,0.455,0.091,0.709c0.125,0.255,0.413,0.599,0.413,0.599l3.491,3.384c0,0,0.107,0.122,0.292,0.486l0.001-1.876
	l-2.884-2.702C8.363,19.059,8.241,18.947,8.155,18.736z"/>
<path id="path3103" fill="#B1D579" d="M19.362,23.255c0.088-0.331,0.089-0.608,0.089-0.608l-0.01-2.976h-1.237v3.082
	c0,0-0.007,0.113-0.069,0.254c-0.063,0.142-0.091,0.173-0.091,0.173l-2.319,2.395h1.569l1.768-1.832
	C19.063,23.742,19.279,23.573,19.362,23.255z"/>
<path id="path3105" fill="#B1D579" d="M12.905,15.81c0.18-0.288,0.437-0.463,0.437-0.463l2.998-3.073c0,0,0.511-0.461,0.622-0.782
	c0.108-0.321,0.045-1.436,0.045-1.436l-0.111-6.44h-1.491l0.077,6.441c0,0,0.062,0.514,0,0.726s-0.294,0.481-0.294,0.481
	l-3.137,3.212c0,0-0.638,0.705-0.743,0.934c-0.104,0.228-0.057,1.347-0.057,1.347l-0.003,5.005l-0.001,1.876l-0.002,1.938h1.479
	l0.051-8.819C12.773,16.756,12.727,16.097,12.905,15.81z"/>
<circle id="circle3107" fill="none" stroke="#B1D579" stroke-width="1.4318" stroke-miterlimit="10" cx="18.723" cy="17.973" r="1.698"/>
<circle id="circle3109" fill="none" stroke="#B1D579" stroke-width="1.7898" stroke-miterlimit="10" cx="7.454" cy="7.291" r="2.769"/>
</svg>
